<svg width="1829" height="680" viewBox="0 0 1829 680" fill="none" xmlns="http://www.w3.org/2000/svg"><g clip-path="url(#clip0)"><g clip-path="url(#clip1)"><path d="M1559.39 319.773H1537.96C1533.95 319.773 1532.24 318.042 1532.24 314.051V300.326C1532.24 296.314 1533.95 294.603 1537.96 294.603H1559.39V254.082C1559.39 250.07 1561.1 248.359 1565.11 248.359H1582.81C1586.82 248.359 1588.53 250.07 1588.53 254.082V294.667H1619.13C1623.12 294.667 1624.83 296.377 1624.83 300.389V314.114C1624.83 318.105 1623.12 319.837 1619.13 319.837H1588.55V386.732C1588.55 399.402 1593.71 406.75 1605.99 406.75C1611.72 406.75 1614.57 405.314 1616.85 405.314C1619.13 405.314 1619.72 406.454 1619.72 408.46V426.472C1619.72 429.323 1618.85 430.189 1615.5 430.695C1609.14 431.557 1602.73 431.939 1596.32 431.836C1574.62 431.836 1559.46 420.116 1559.46 395.812L1559.39 319.773Z" fill="#000046"/><path d="M1396.99 300.326C1396.99 296.314 1398.7 294.603 1402.71 294.603H1418.21C1422.23 294.603 1422.75 296.166 1423.94 300.326L1426.15 309.469C1439.9 296.419 1450.73 292.154 1470.22 292.133C1498.77 292.133 1519.06 307.252 1519.06 343.698V423.263C1519.06 427.254 1517.35 428.985 1513.34 428.985H1495.62C1491.61 428.985 1489.9 427.254 1489.9 423.263V344.12C1489.61 327.016 1479.7 313.544 1458.04 315.043C1452.41 315.683 1447.02 317.694 1442.35 320.901C1437.68 324.107 1433.86 328.412 1431.24 333.436C1425.6 344.838 1426.53 356.663 1426.15 373.556V423.305C1426.15 427.296 1424.44 429.027 1420.43 429.027H1402.71C1398.7 429.027 1396.99 427.296 1396.99 423.305V300.326Z" fill="#000046"/><path d="M1355.84 234.001C1359.69 233.996 1363.45 235.133 1366.65 237.268C1369.85 239.402 1372.34 242.438 1373.82 245.991C1375.3 249.545 1375.68 253.456 1374.94 257.23C1374.19 261.003 1372.34 264.471 1369.62 267.193C1366.9 269.914 1363.43 271.769 1359.66 272.521C1355.89 273.273 1351.98 272.889 1348.42 271.418C1344.87 269.946 1341.83 267.454 1339.69 264.255C1337.55 261.056 1336.41 257.296 1336.41 253.448C1336.39 250.89 1336.88 248.353 1337.84 245.984C1338.81 243.616 1340.24 241.464 1342.05 239.654C1343.86 237.844 1346.01 236.412 1348.38 235.441C1350.74 234.471 1353.28 233.981 1355.84 234.001ZM1341.27 300.326C1341.27 296.314 1342.98 294.603 1346.99 294.603H1364.71C1368.72 294.603 1370.43 296.314 1370.43 300.326V423.263C1370.43 427.254 1368.72 428.985 1364.71 428.985H1346.99C1342.98 428.985 1341.27 427.254 1341.27 423.263V300.326Z" fill="#000046"/><path d="M1178.32 361.773C1178.32 318.612 1207.75 291.732 1248.36 291.732C1288.96 291.732 1318.4 318.612 1318.4 361.773C1318.4 408.08 1286.39 431.815 1248.36 431.815C1210.33 431.815 1178.32 408.101 1178.32 361.773ZM1288.12 362.048C1288.12 333.182 1270.38 316.881 1248.38 316.881C1226.38 316.881 1208.64 333.182 1208.64 362.048C1208.64 388.358 1223.42 406.666 1248.38 406.666C1273.34 406.666 1288.1 388.379 1288.1 362.069L1288.12 362.048Z" fill="#000046"/><path d="M1027.66 300.326C1027.66 296.314 1029.37 294.603 1033.36 294.603H1047.95C1051.37 294.603 1053.1 296.039 1053.67 298.615L1056.82 309.469C1065.67 299.46 1080.26 291.753 1099.05 291.753C1133.93 291.753 1159.67 315.191 1159.67 361.794C1159.67 408.397 1132.22 431.836 1094.22 431.836C1078.78 431.836 1065.62 427.254 1056.78 420.391V489.018C1056.78 493.009 1055.05 494.74 1051.05 494.74H1033.32C1029.33 494.74 1027.62 493.009 1027.62 489.018L1027.66 300.326ZM1056.82 378.096C1056.82 386.943 1058.23 391.23 1065.67 397.522C1071.39 402.379 1079.69 406.687 1093.41 406.687C1114.28 406.687 1129.44 389.245 1129.44 361.499C1129.44 335.779 1116.56 316.902 1093.98 316.902C1088.39 316.858 1082.86 318.129 1077.84 320.612C1072.82 323.095 1068.46 326.72 1065.1 331.197C1059.6 337.871 1056.67 346.287 1056.82 354.932V378.096Z" fill="#000046"/><path d="M882.13 300.326C882.13 296.314 883.862 294.603 887.853 294.603H903.372C907.363 294.603 907.891 296.166 909.095 300.326L911.206 309.469C924.953 296.419 935.785 292.154 955.275 292.133C983.823 292.133 1004.14 307.252 1004.14 343.698V423.263C1004.14 427.254 1002.4 428.985 998.414 428.985H980.677C976.686 428.985 974.976 427.254 974.976 423.263V344.12C974.659 327.016 964.756 313.544 943.091 315.043C937.462 315.686 932.076 317.699 927.405 320.905C922.733 324.112 918.919 328.414 916.295 333.436C910.657 344.838 911.608 356.663 911.206 373.556V423.305C911.206 427.296 909.496 429.027 905.505 429.027H887.768C883.777 429.027 882.046 427.296 882.046 423.305L882.13 300.326Z" fill="#000046"/><path d="M840.976 234.001C844.822 234.001 848.582 235.141 851.78 237.278C854.978 239.415 857.471 242.452 858.943 246.006C860.415 249.56 860.8 253.47 860.05 257.242C859.299 261.015 857.447 264.48 854.727 267.2C852.008 269.92 848.542 271.772 844.77 272.522C840.997 273.273 837.087 272.888 833.534 271.416C829.98 269.944 826.943 267.451 824.806 264.253C822.669 261.055 821.528 257.295 821.528 253.448C821.509 250.889 821.998 248.351 822.969 245.983C823.939 243.614 825.371 241.463 827.181 239.653C828.99 237.843 831.142 236.411 833.51 235.441C835.879 234.47 838.416 233.981 840.976 234.001ZM826.385 300.326C826.385 296.314 828.116 294.603 832.107 294.603H849.844C853.835 294.603 855.546 296.314 855.546 300.326V423.263C855.546 427.254 853.835 428.985 849.844 428.985H832.107C828.116 428.985 826.385 427.254 826.385 423.263V300.326Z" fill="#000046"/><path d="M662 240.905C662 236.893 663.731 235.183 667.722 235.183H743.485C785.505 235.183 808.395 260.353 808.395 295.511C808.395 329.297 784.935 355.839 746.631 355.839H693.462V423.263C693.462 427.254 691.752 428.985 687.74 428.985H667.722C663.731 428.985 662 427.254 662 423.263V240.905ZM742.408 327.819C765.635 327.819 776.996 313.523 776.996 295.511C776.996 277.499 765.572 263.204 742.408 263.204H693.462V327.819H742.408Z" fill="#000046"/><path d="M1666.7 234C1654.15 234 1643.98 244.258 1643.98 256.715C1643.98 269.263 1654.15 279.43 1666.7 279.43C1679.15 279.43 1689.41 269.263 1689.41 256.715C1689.41 244.258 1679.15 234 1666.7 234ZM1666.7 275.034C1656.53 275.034 1648.38 266.882 1648.38 256.715C1648.38 246.64 1656.53 238.396 1666.7 238.396C1676.77 238.396 1685.01 246.64 1685.01 256.715C1685.01 266.882 1676.77 275.034 1666.7 275.034ZM1676.77 267.615C1671.92 258.73 1672.19 259.188 1671.92 258.822C1674.11 257.539 1675.49 254.975 1675.49 252.044C1675.49 247.281 1672.74 244.258 1666.24 244.258H1659C1658.36 244.258 1657.9 244.808 1657.9 245.358V268.073C1657.9 268.714 1658.36 269.172 1659 269.172H1662.57C1663.12 269.172 1663.67 268.714 1663.67 268.073V260.47H1666.6L1670.91 268.622C1671.09 268.989 1671.55 269.172 1671.92 269.172H1675.76C1676.68 269.172 1677.14 268.347 1676.77 267.615ZM1666.7 255.25H1663.67V249.388H1666.15C1669.08 249.388 1669.72 250.487 1669.72 252.319C1669.72 254.242 1668.62 255.25 1666.7 255.25Z" fill="#000046"/></g><path fill-rule="evenodd" clip-rule="evenodd" d="M260.538 513.125H301.909V513.15C404.262 513.15 487.513 429.454 487.513 326.581C487.513 223.708 404.262 140.012 301.903 140H301.681L289.426 140.145C207.026 140.211 140 207.616 140 290.462C140.001 321.815 149.755 352.384 167.898 377.889C186.04 403.393 211.663 422.557 241.178 432.696L241.352 432.745V493.839C241.352 498.954 243.373 503.86 246.971 507.477C250.57 511.094 255.45 513.125 260.538 513.125ZM289.744 180.037L302.017 179.892C383.175 179.952 449.188 246.314 449.188 327.943C449.188 409.571 383.115 475.982 301.909 475.982H279.677V438.735H304.469C360.553 438.735 406.181 392.871 406.181 336.495V329.022C406.181 279.637 366.207 239.456 317.078 239.456H260.532C255.444 239.456 250.564 241.488 246.965 245.105C243.367 248.721 241.346 253.627 241.346 258.742V360.518C248.055 368.793 261.845 374.826 274.436 375.17H279.677V278.004H317.06C330.522 278.018 343.428 283.4 352.948 292.967C362.467 302.535 367.822 315.508 367.838 329.04V336.495C367.819 353.392 361.131 369.591 349.243 381.537C337.354 393.482 321.237 400.199 304.427 400.211H270.587C259.445 399.595 248.568 396.562 238.702 391.322C202.14 372.632 178.307 334.825 178.307 291.83C178.307 230.186 228.197 180.037 289.522 180.037H289.744Z" fill="#008DFF"/></g><defs><clipPath id="clip0"><rect width="1549" height="373" fill="white" transform="translate(140 140)"/></clipPath><clipPath id="clip1"><rect width="1027" height="260.74" fill="white" transform="translate(662 234)"/></clipPath></defs></svg>
