<svg id="Layer_1" data-name="Layer 1" xmlns="http://www.w3.org/2000/svg" viewBox="0 0 2500 1000"><title>Untitled-1</title><path d="M839.44,379.53h-73.7c-12.76,0-21.91,9.16-21.91,21.91V625.37c0,12.35,9.16,21.52,21.11,21.52S786,637.73,786,625.37V540.89h53.39c53,0,89.25-33.07,89.25-80.89C928.68,411.8,892.82,379.53,839.44,379.53ZM839,503.44H786V417h53c28.69,0,46.22,16.73,46.22,43.43S867.73,503.44,839,503.44Z"/><path d="M989.28,375.14c-12.35,0-21.11,9.16-21.11,21.52v228.7c0,12.35,8.77,21.52,21.11,21.52s21.11-9.16,21.11-21.52V396.66C1010.37,384.31,1001.6,375.14,989.28,375.14Z"/><path d="M1285.28,396.66c0-12.35-9.16-21.52-21.11-21.52S1243,384.3,1243,396.66l.39,166.55L1110.37,389.09c-6.78-9.16-11.55-13.95-21.11-13.95a20.58,20.58,0,0,0-20.72,20.43q0,.16,0,.32V625.37c0,12.35,9.16,21.52,21.11,21.52s21.11-9.16,21.11-21.52V458.42l133.88,176.5c5.57,7.17,11.16,12,19.92,12a20.33,20.33,0,0,0,20.71-19.94q0-.4,0-.81Z"/><path d="M1431.1,379.53h-73.7c-12.76,0-21.91,9.16-21.91,21.91V625.37c0,12.35,9.16,21.52,21.11,21.52s21.11-9.16,21.11-21.52V540.89h53.39c53,0,89.25-33.07,89.25-80.89C1520.41,411.8,1484.49,379.53,1431.1,379.53Zm-.39,123.91h-53V417h53c28.69,0,46.22,16.73,46.22,43.43S1459.4,503.44,1430.71,503.44Z"/><path d="M1681.72,375.14c-77.3,0-137.86,59.77-137.86,135.87s60.57,135.87,137.86,135.87S1820,587.11,1820,511C1820,435.31,1759,375.14,1681.72,375.14Zm.39,233.08c-54.58,0-94.43-41-94.43-97.62,0-55.78,39.85-96.81,94.43-96.81,54.19,0,94.43,41.44,94.43,96.81C1776.55,566.8,1736.27,608.23,1682.11,608.23Z"/><path d="M1875.75,375.14c-12.35,0-21.11,9.16-21.11,21.52v228.7c0,12.35,8.77,21.52,21.11,21.52s21.11-9.16,21.11-21.52V396.66C1896.87,384.31,1888.1,375.14,1875.75,375.14Z"/><path d="M2163.82,396.66c0-12.35-9.17-21.52-21.11-21.52s-21.11,9.16-21.11,21.52l.39,166.55L1988.9,389.09c-6.78-9.16-11.55-13.95-21.11-13.95a20.58,20.58,0,0,0-20.71,20.45q0,.15,0,.3V625.37c0,12.35,9.16,21.52,21.11,21.52s21.11-9.16,21.11-21.52V458.42l133.87,176.5c5.57,7.17,11.16,12,19.92,12A20.33,20.33,0,0,0,2163.82,627q0-.41,0-.82Z"/><path d="M2406,379.52H2220.81a19,19,0,0,0-19.51,18.41q0,.36,0,.72c0,10.75,8.37,18.72,19.52,18.72h70.92v208c0,12.35,9.16,21.52,21.11,21.52s21.11-9.16,21.11-21.52v-208h71.32c11.16,0,19.52-8,19.52-18.72A19,19,0,0,0,2406,379.52Z"/><path d="M372,203.17C208.35,203.17,75.2,336.33,75.2,500S208.37,796.83,372,796.83,668.87,663.67,668.87,500,535.71,203.17,372,203.17Zm-2.45,501H324a21.09,21.09,0,0,1-21.09-21.09V616.21h-.18a164.52,164.52,0,0,1,53.09-320.26l13.49-.16h.25c112.6,0,204.21,91.58,204.21,204.21S482.19,704.21,369.59,704.21Z"/><path d="M369.71,338h0l-13.47.16H356a122.41,122.41,0,0,0-55.91,231.27,85,85,0,0,0,35.1,9.73H372.4a69.82,69.82,0,0,0,69.74-69.74V501.2a55.93,55.93,0,0,0-55.86-55.86H345.13V551.7h-5.77c-13.87-.38-29.06-7-36.41-16V424.25A21.09,21.09,0,0,1,324,403.17h62.22a98.12,98.12,0,0,1,98.05,98v8.16A112,112,0,0,1,372.39,621.28H345.13V662h24.46a162,162,0,0,0,.12-324.1Z"/></svg>